<mxfile host="app.diagrams.net" modified="2020-04-08T16:22:13.242Z" agent="5.0 (Windows NT 10.0; Win64; x64) AppleWebKit/537.36 (KHTML, like Gecko) Chrome/81.0.4044.92 Safari/537.36" etag="R9nTxMFU47W2jyNlM1Rd" version="12.9.10" type="github">
  <diagram id="iHZ9vSR-7cuaXf-MaieG" name="Page-1">
    <mxGraphModel dx="1038" dy="548" grid="1" gridSize="10" guides="1" tooltips="1" connect="1" arrows="1" fold="1" page="1" pageScale="1" pageWidth="827" pageHeight="1169" math="0" shadow="0">
      <root>
        <mxCell id="0" />
        <mxCell id="1" parent="0" />
        <mxCell id="Gnk-wWAvZfYlnxje4a7L-10" value="" style="rounded=1;whiteSpace=wrap;html=1;" vertex="1" parent="1">
          <mxGeometry x="140" y="20" width="500" height="460" as="geometry" />
        </mxCell>
        <mxCell id="Gnk-wWAvZfYlnxje4a7L-11" style="edgeStyle=orthogonalEdgeStyle;rounded=0;orthogonalLoop=1;jettySize=auto;html=1;exitX=0.5;exitY=0.5;exitDx=0;exitDy=0;exitPerimeter=0;" edge="1" parent="1" source="Gnk-wWAvZfYlnxje4a7L-12" target="Gnk-wWAvZfYlnxje4a7L-14">
          <mxGeometry relative="1" as="geometry" />
        </mxCell>
        <mxCell id="Gnk-wWAvZfYlnxje4a7L-12" value="Actor 2" style="shape=umlActor;verticalLabelPosition=bottom;labelBackgroundColor=#ffffff;verticalAlign=top;html=1;outlineConnect=0;" vertex="1" parent="1">
          <mxGeometry x="40" y="80" width="30" height="60" as="geometry" />
        </mxCell>
        <mxCell id="Gnk-wWAvZfYlnxje4a7L-13" style="edgeStyle=orthogonalEdgeStyle;rounded=0;orthogonalLoop=1;jettySize=auto;html=1;entryX=0;entryY=0.5;entryDx=0;entryDy=0;" edge="1" parent="1" source="Gnk-wWAvZfYlnxje4a7L-14" target="Gnk-wWAvZfYlnxje4a7L-16">
          <mxGeometry relative="1" as="geometry" />
        </mxCell>
        <mxCell id="Gnk-wWAvZfYlnxje4a7L-14" value="GET data from local database" style="ellipse;whiteSpace=wrap;html=1;" vertex="1" parent="1">
          <mxGeometry x="180" y="80" width="120" height="80" as="geometry" />
        </mxCell>
        <mxCell id="Gnk-wWAvZfYlnxje4a7L-15" style="edgeStyle=orthogonalEdgeStyle;rounded=0;orthogonalLoop=1;jettySize=auto;html=1;entryX=0;entryY=0.5;entryDx=0;entryDy=0;" edge="1" parent="1" source="Gnk-wWAvZfYlnxje4a7L-16" target="Gnk-wWAvZfYlnxje4a7L-18">
          <mxGeometry relative="1" as="geometry" />
        </mxCell>
        <mxCell id="Gnk-wWAvZfYlnxje4a7L-16" value="Send SMS to teachers for request" style="ellipse;whiteSpace=wrap;html=1;" vertex="1" parent="1">
          <mxGeometry x="300" y="140" width="120" height="80" as="geometry" />
        </mxCell>
        <mxCell id="Gnk-wWAvZfYlnxje4a7L-17" style="edgeStyle=orthogonalEdgeStyle;rounded=0;orthogonalLoop=1;jettySize=auto;html=1;entryX=0;entryY=0.5;entryDx=0;entryDy=0;" edge="1" parent="1" source="Gnk-wWAvZfYlnxje4a7L-18" target="Gnk-wWAvZfYlnxje4a7L-19">
          <mxGeometry relative="1" as="geometry" />
        </mxCell>
        <mxCell id="Gnk-wWAvZfYlnxje4a7L-18" value="Wait for respond Yes/No" style="ellipse;whiteSpace=wrap;html=1;" vertex="1" parent="1">
          <mxGeometry x="380" y="220" width="120" height="80" as="geometry" />
        </mxCell>
        <mxCell id="Gnk-wWAvZfYlnxje4a7L-19" value="Update database status email" style="ellipse;whiteSpace=wrap;html=1;" vertex="1" parent="1">
          <mxGeometry x="460" y="300" width="120" height="80" as="geometry" />
        </mxCell>
      </root>
    </mxGraphModel>
  </diagram>
</mxfile>
